HIERARCHY
ROOT Hips
{
	OFFSET 0.00000 0.00000 0.00000
	CHANNELS 6 Xposition Yposition Zposition Zrotation Yrotation Xrotation 
	JOINT LHipJoint
	{
		OFFSET 0 0 0
		CHANNELS 3 Zrotation Yrotation Xrotation
		JOINT LeftUpLeg
		{
			OFFSET 1.41261 -1.82971 0.84908
			CHANNELS 3 Zrotation Yrotation Xrotation
			JOINT LeftLeg
			{
				OFFSET 2.52554 -6.93888 0.00000
				CHANNELS 3 Zrotation Yrotation Xrotation
				JOINT LeftFoot
				{
					OFFSET 2.56654 -7.05152 0.00000
					CHANNELS 3 Zrotation Yrotation Xrotation
					JOINT LeftToeBase
					{
						OFFSET 0.21698 -0.59616 1.85369
						CHANNELS 3 Zrotation Yrotation Xrotation
						End Site
						{
							OFFSET 0.00000 -0.00000 0.97832
						}
					}
				}
			}
		}
	}
	JOINT RHipJoint
	{
		OFFSET 0 0 0
		CHANNELS 3 Zrotation Yrotation Xrotation
		JOINT RightUpLeg
		{
			OFFSET -1.12808 -1.82971 0.84907
			CHANNELS 3 Zrotation Yrotation Xrotation
			JOINT RightLeg
			{
				OFFSET -2.53425 -6.96280 0.00000
				CHANNELS 3 Zrotation Yrotation Xrotation
				JOINT RightFoot
				{
					OFFSET -2.58413 -7.09983 0.00000
					CHANNELS 3 Zrotation Yrotation Xrotation
					JOINT RightToeBase
					{
						OFFSET -0.26437 -0.72636 1.92241
						CHANNELS 3 Zrotation Yrotation Xrotation
						End Site
						{
							OFFSET -0.00000 -0.00000 1.02667
						}
					}
				}
			}
		}
	}
	JOINT LowerBack
	{
		OFFSET 0 0 0
		CHANNELS 3 Zrotation Yrotation Xrotation
		JOINT Spine
		{
			OFFSET -0.02096 2.02288 -0.14752
			CHANNELS 3 Zrotation Yrotation Xrotation
			JOINT Spine1
			{
				OFFSET 0.03477 2.03136 -0.02358
				CHANNELS 3 Zrotation Yrotation Xrotation
				JOINT Neck
				{
					OFFSET 0 0 0
					CHANNELS 3 Zrotation Yrotation Xrotation
					JOINT Neck1
					{
						OFFSET 0.00174 1.74359 0.19336
						CHANNELS 3 Zrotation Yrotation Xrotation
						JOINT Head
						{
							OFFSET -0.03054 1.76140 -0.17751
							CHANNELS 3 Zrotation Yrotation Xrotation
							End Site
							{
								OFFSET -0.00863 1.77239 -0.08120
							}
						}
					}
				}
				JOINT LeftShoulder
				{
					OFFSET 0 0 0
					CHANNELS 3 Zrotation Yrotation Xrotation
					JOINT LeftArm
					{
						OFFSET 3.68685 1.32687 -0.67367
						CHANNELS 3 Zrotation Yrotation Xrotation
						JOINT LeftForeArm
						{
							OFFSET 4.76468 -0.00000 -0.00000
							CHANNELS 3 Zrotation Yrotation Xrotation
							JOINT LeftHand
							{
								OFFSET 3.52712 -0.00000 -0.00000
								CHANNELS 3 Zrotation Yrotation Xrotation
								JOINT LeftFingerBase
								{
									OFFSET 0 0 0
									CHANNELS 3 Zrotation Yrotation Xrotation
									JOINT LeftHandIndex1
									{
										OFFSET 0.85956 -0.00000 -0.00000
										CHANNELS 3 Zrotation Yrotation Xrotation
										End Site
										{
											OFFSET 0.69300 -0.00000 -0.00000
										}
									}
								}
								JOINT LThumb
								{
									OFFSET 0 0 0
									CHANNELS 3 Zrotation Yrotation Xrotation
									End Site
									{
										OFFSET 0.70358 -0.00000 0.70358
									}
								}
							}
						}
					}
				}
				JOINT RightShoulder
				{
					OFFSET 0 0 0
					CHANNELS 3 Zrotation Yrotation Xrotation
					JOINT RightArm
					{
						OFFSET -3.31304 1.28268 -0.97357
						CHANNELS 3 Zrotation Yrotation Xrotation
						JOINT RightForeArm
						{
							OFFSET -4.90577 -0.00000 -0.00000
							CHANNELS 3 Zrotation Yrotation Xrotation
							JOINT RightHand
							{
								OFFSET -3.42692 -0.00000 0.00000
								CHANNELS 3 Zrotation Yrotation Xrotation
								JOINT RightFingerBase
								{
									OFFSET 0 0 0
									CHANNELS 3 Zrotation Yrotation Xrotation
									JOINT RightHandIndex1
									{
										OFFSET -0.74096 -0.00000 -0.00000
										CHANNELS 3 Zrotation Yrotation Xrotation
										End Site
										{
											OFFSET -0.59738 -0.00000 -0.00000
										}
									}
								}
								JOINT RThumb
								{
									OFFSET 0 0 0
									CHANNELS 3 Zrotation Yrotation Xrotation
									End Site
									{
										OFFSET -0.60650 -0.00000 0.60650
									}
								}
							}
						}
					}
				}
			}
		}
	}
}
MOTION
Frames: 15
Frame Time: .0083333
5.6318 24.2526 6.8457 -0.2485 34.4670 -10.3839 0.0000 0.0000 0.0000 -16.7515 1.4711 -14.2993 11.1661 18.0154 63.3199 -0.2261 -9.3012 7.6828 3.8606 -11.9726 -35.6351 0.0000 0.0000 0.0000 17.8006 -2.6296 -22.1063 -15.8997 -19.5921 77.9329 -0.9712 -14.5614 19.0211 -1.8651 -8.5792 24.4876 -1.3676 0.2579 14.9263 0.6353 0.1842 1.0038 1.4114 0.1543 -7.3179 -0.2523 2.4161 -3.8344 -3.6870 3.6691 9.6151 -1.0089 1.6649 3.8873 -0.0000 0.0000 0.0000 -65.2915 -17.1850 12.9790 53.3361 -54.2555 -28.8607 -0.0000 0.0000 -4.3236 20.1951 -21.5773 -7.7038 -7.1250 0.0000 -0.0000 -5.3882 7.2144 4.6902 -0.0000 0.0000 0.0000 42.0231 52.7504 30.9605 -26.7403 37.9304 -9.3391 0.0000 0.0000 0.0153 -7.4684 -32.9667 4.0802 7.1250 -0.0000 -0.0000 29.0331 -60.7698 -11.7258
5.9850 24.2551 7.3857 -0.3398 33.9436 -10.9012 0.0000 0.0000 0.0000 -16.5712 0.0969 -15.0613 10.3350 17.5940 60.6023 -0.2010 -8.7361 7.1333 3.7584 -11.8317 -35.1392 0.0000 0.0000 0.0000 17.9674 -2.5002 -23.7828 -15.4212 -19.4897 76.5023 -0.8045 -14.2545 17.6282 -2.0134 -8.8939 25.4640 -1.1811 0.3486 15.8151 0.5945 0.3305 1.4402 1.2304 0.2190 -7.3468 -0.1855 2.6996 -2.8697 -3.9385 3.9857 8.1015 -1.1003 1.8468 3.1885 0.0000 -0.0000 0.0000 -67.7818 -15.2907 15.2655 49.0514 -52.6057 -25.4186 -0.0000 0.0000 -5.6205 20.2907 -21.1339 -7.5930 -7.1250 0.0000 -0.0000 -5.2928 7.6610 4.5599 0.0000 -0.0000 0.0000 45.6177 51.9133 37.2421 -25.9301 37.1396 -8.8454 0.0000 -0.0000 -1.4913 -7.1961 -32.5462 3.8858 7.1250 -0.0000 -0.0000 28.9104 -60.3424 -11.3746
6.3440 24.2097 7.9307 -0.6623 33.4424 -11.3537 0.0000 0.0000 0.0000 -16.1046 -1.0904 -15.7984 9.3959 17.0558 57.4494 -0.1802 -8.2625 6.7177 3.6411 -11.6669 -34.5636 0.0000 0.0000 0.0000 18.3519 -2.2897 -25.5542 -14.7604 -19.3286 74.5139 -0.7993 -13.0625 17.1924 -1.8302 -8.5031 24.2529 -0.8542 0.4227 16.4388 0.6389 0.4915 1.8584 1.0552 0.2880 -7.2443 -0.0412 2.9888 -1.9001 -4.2394 4.3076 6.6297 -1.2253 2.0350 2.5300 -0.0000 0.0000 0.0000 -69.7774 -13.5954 17.9865 45.0054 -50.7711 -22.2430 -0.0000 0.0000 -7.2133 20.1263 -22.0871 -7.8458 -7.1250 0.0000 -0.0000 -5.4727 6.6956 4.8199 -0.0000 0.0000 0.0000 48.4733 50.8281 42.8980 -25.4139 36.6241 -8.5356 0.0000 -0.0000 -2.0526 -6.5104 -32.1960 3.4796 7.1250 -0.0000 -0.0000 29.2772 -59.8800 -11.2074
6.7111 24.1010 8.4823 -0.9669 32.8902 -11.6923 0.0000 0.0000 0.0000 -15.6547 -2.4200 -16.3839 8.4387 16.4326 54.1278 -0.1344 -7.4010 6.5037 3.5059 -11.4722 -33.8894 0.0000 0.0000 0.0000 18.8246 -2.1320 -26.9537 -13.8358 -19.0635 71.7023 -0.7165 -12.0318 16.1665 -1.5693 -7.9045 22.4243 -0.5367 0.5414 16.9680 0.6992 0.7136 2.2299 0.8872 0.3883 -7.1379 -0.0196 3.2573 -0.9785 -4.5242 4.6027 5.1726 -1.3285 2.2103 1.9016 0.0000 -0.0000 0.0000 -71.3794 -11.7199 21.2752 42.2849 -49.3668 -20.1565 -0.0000 0.0000 -6.5295 18.8499 -20.1145 -6.6962 -7.1250 0.0000 -0.0000 -6.1425 8.9221 5.1460 0.0000 -0.0000 0.0000 50.5793 49.4263 48.0603 -25.3398 36.5493 -8.4914 0.0000 -0.0000 -1.7534 -5.9233 -32.2763 3.1711 7.1250 -0.0000 -0.0000 29.9408 -59.8129 -11.4409
7.0857 23.9493 9.0455 -1.3115 32.2485 -12.0205 0.0000 0.0000 0.0000 -15.1230 -3.6446 -16.7360 7.4635 15.7101 50.6063 -0.0671 -6.1737 6.6465 3.3950 -11.3086 -33.3278 0.0000 0.0000 0.0000 19.3936 -1.8811 -28.0518 -12.7734 -18.6988 68.4203 -0.6079 -11.1370 14.8986 -1.3593 -7.3798 20.8455 -0.1033 0.7183 17.4577 0.7299 1.0338 2.5622 0.5972 0.5340 -7.0474 -0.0505 3.5042 -0.1472 -4.7882 4.8652 3.7351 -1.4211 2.3715 1.3103 0.0000 0.0000 0.0000 -72.6679 -9.5205 24.9652 40.7850 -48.5281 -19.0253 -0.0000 0.0000 -5.9290 16.1337 -18.2614 -5.1794 -7.1250 0.0000 -0.0000 -7.8150 11.1580 6.2145 0.0000 0.0000 0.0000 51.9519 47.6186 52.5082 -25.9211 37.1307 -8.8400 0.0000 -0.0000 -1.0490 -5.4562 -32.7325 2.9566 7.1250 -0.0000 -0.0000 30.8381 -60.0930 -12.0331
7.4653 23.7475 9.6203 -1.5410 31.6430 -12.1822 0.0000 0.0000 0.0000 -14.6481 -4.7547 -17.0323 6.5191 14.9132 47.0312 0.0107 -4.7563 7.1504 3.3674 -11.2673 -33.1866 0.0000 0.0000 0.0000 19.9040 -1.5805 -28.9495 -11.5964 -18.2148 64.7036 -0.5373 -10.1065 13.8937 -1.2578 -7.1096 20.0403 0.2468 0.9253 17.7913 0.7101 1.3746 2.8076 0.2950 0.6920 -6.9603 0.6672 2.6172 -6.2904 -4.4946 4.1390 13.1429 -1.2413 1.7984 5.0925 0.0000 -0.0000 0.0000 -73.5980 -6.5945 29.1243 40.9921 -48.6468 -19.1807 -0.0000 0.0000 -6.1507 16.2099 -19.3505 -5.5021 -7.1250 0.0000 -0.0000 -7.8065 10.0381 6.3875 0.0000 -0.0000 0.0000 52.6820 45.3796 56.2428 -27.2382 38.4054 -9.6467 0.0000 0.0000 0.0282 -5.0967 -32.8187 2.7675 7.1250 -0.0000 -0.0000 31.2799 -60.0819 -12.2179
7.8488 23.4844 10.2071 -1.4822 31.2270 -12.1068 0.0000 0.0000 0.0000 -14.4361 -5.8828 -17.2928 5.6194 14.0491 43.4346 0.0853 -3.5349 7.9508 3.5085 -11.4760 -33.9026 0.0000 0.0000 0.0000 20.1494 -1.3687 -29.7836 -10.3911 -17.6240 60.7878 -0.4834 -8.9809 13.0070 -1.1449 -6.7945 19.1079 0.1720 1.0562 18.0786 0.6251 1.5288 2.9846 0.2070 0.7688 -6.9257 0.8085 1.5938 -10.8650 -3.2429 2.8736 20.6261 -0.9142 1.1487 8.2438 0.0000 -0.0000 0.0000 -73.9629 -2.6643 33.4580 43.3931 -49.9565 -21.0012 -0.0000 0.0000 -7.7461 15.2443 -18.4438 -4.9279 -7.1250 0.0000 -0.0000 -8.4024 11.0691 6.7073 0.0000 -0.0000 0.0000 52.8008 42.9980 59.7446 -29.4541 40.4209 -11.0540 0.0000 0.0000 1.1544 -5.0181 -32.1596 2.6759 7.1250 -0.0000 -0.0000 30.7355 -59.5050 -11.5508
8.2426 23.1674 10.8003 -1.2348 30.9606 -11.8871 0.0000 0.0000 0.0000 -14.4047 -6.8620 -17.6236 4.7944 13.1485 39.9268 0.1550 -2.7874 9.0072 3.7746 -11.8543 -35.2184 0.0000 0.0000 0.0000 20.1686 -1.3002 -30.5283 -9.1773 -16.9205 56.7012 -0.4131 -7.8091 11.8954 -0.8439 -5.8595 16.3772 0.0187 1.2117 18.3587 0.4844 1.6943 3.0310 0.0989 0.8510 -7.0279 0.5497 1.6122 -11.2409 -3.0172 2.9433 21.4776 -0.7855 1.1732 8.5951 -0.0000 0.0000 0.0000 -73.9922 1.8053 38.0037 47.2951 -51.8446 -24.0303 -0.0000 0.0000 -8.7853 17.2100 -18.8346 -5.7104 -7.1250 0.0000 -0.0000 -7.1349 10.4481 5.7689 -0.0000 0.0000 0.0000 52.0538 40.0431 62.6434 -32.7985 43.1746 -13.2840 0.0000 0.0000 2.0134 -4.8742 -30.8285 2.5023 7.1250 -0.0000 -0.0000 29.6927 -58.3341 -10.2657
8.6412 22.7997 11.4069 -1.2767 30.6949 -11.8867 0.0000 0.0000 0.0000 -14.0781 -8.0649 -17.7977 4.0743 12.2586 36.6530 0.2533 -2.6593 10.8677 3.7842 -11.8675 -35.2649 0.0000 0.0000 0.0000 20.4811 -1.2024 -30.9160 -7.9739 -16.1001 52.4688 -0.3494 -6.7590 10.8407 -0.6784 -5.2665 14.6703 -0.0483 1.2825 18.6056 0.3889 1.7679 3.1008 0.0123 0.8873 -7.0850 0.6007 1.6712 -11.5090 -2.9331 3.0174 21.9336 -0.7557 1.2138 8.8011 0.0000 0.0000 0.0000 -73.8297 6.8421 41.7387 53.0948 -54.1699 -28.6650 -0.0000 0.0000 -9.2142 17.6493 -17.7926 -5.5530 -7.1250 0.0000 -0.0000 -6.8021 11.4682 5.3527 0.0000 0.0000 0.0000 50.9107 37.0084 65.1690 -37.3225 46.4011 -16.4732 0.0000 0.0000 2.2987 -4.9114 -31.2556 2.5529 7.1250 -0.0000 -0.0000 30.0263 -58.7092 -10.6710
9.0291 22.3740 12.0489 -1.9120 30.3738 -12.4890 0.0000 0.0000 0.0000 -13.0836 -9.1467 -17.7214 3.4622 11.4081 33.6691 0.3662 -2.5854 12.6756 3.9137 -12.0447 -35.8902 0.0000 0.0000 0.0000 21.4284 -1.0143 -30.6707 -6.8371 -15.1932 48.2557 -0.3119 -6.0371 10.1697 -0.7780 -5.6315 15.7189 -0.0543 1.4086 18.8478 0.5911 1.9510 3.2913 0.1847 0.9797 -7.0180 0.6100 1.7034 -11.7302 -2.9009 3.0713 22.3132 -0.7386 1.2377 8.9735 0.0000 0.0000 0.0000 -74.0314 12.3764 44.4311 60.6092 -56.4701 -34.8485 -0.0000 0.0000 -9.4767 19.5772 -17.3793 -6.0636 -7.1250 0.0000 -0.0000 -5.5108 11.6690 4.3028 0.0000 0.0000 0.0000 49.0000 33.6595 66.9650 -43.2399 49.8765 -20.8840 0.0000 0.0000 1.7706 -4.9590 -31.3727 2.5864 7.1250 -0.0000 -0.0000 30.0823 -58.8200 -10.7748
9.4275 21.9068 12.6974 -2.2989 30.2145 -12.6744 0.0000 0.0000 0.0000 -12.3979 -10.1038 -18.0627 2.9814 10.6649 31.1578 0.4471 -3.1617 14.1872 4.3920 -12.6645 -38.1251 0.0000 0.0000 0.0000 22.0334 -0.8845 -30.5900 -5.7632 -14.1949 44.0237 -0.3422 -5.5904 10.5332 -0.6352 -5.0994 14.1922 -0.1846 1.5767 18.5698 0.8071 2.1639 3.5004 0.4487 1.0900 -6.6577 -0.1376 1.6243 -12.0763 -2.2820 2.9896 22.5984 -0.4081 1.1958 9.1140 0.0000 -0.0000 0.0000 -74.4453 17.9577 46.4571 68.9018 -58.2494 -41.8359 -0.0000 0.0000 -9.8454 20.1185 -18.0075 -6.4608 -7.1250 0.0000 -0.0000 -5.1894 10.9457 4.1271 0.0000 -0.0000 0.0000 46.4093 29.8705 67.8410 -50.6250 53.2445 -26.6741 0.0000 0.0000 1.1548 -5.0486 -32.4226 2.7118 7.1250 -0.0000 -0.0000 30.9508 -59.7354 -11.8146
9.8613 21.3745 13.3220 -1.3488 30.4785 -11.8058 0.0000 0.0000 0.0000 -13.1175 -11.4995 -18.8706 2.6220 10.0564 29.1597 0.5332 -3.3077 15.3974 4.5956 -12.9134 -39.0451 0.0000 0.0000 0.0000 21.0731 -0.8833 -31.0760 -4.8452 -13.2073 40.1495 -0.4856 -5.5202 12.4364 -0.6512 -5.1619 14.3710 -1.0858 1.5665 17.9981 0.5674 1.9610 3.4861 0.7661 1.0064 -6.3836 -0.2722 1.7067 -12.1759 -2.4070 3.1843 22.9558 -0.4040 1.2579 9.2602 0.0000 -0.0000 0.0000 -75.0486 23.8793 47.4877 77.4648 -59.3979 -49.1662 -0.0000 0.0000 -10.2423 22.3076 -18.3110 -7.3450 -7.1250 0.0000 -0.0000 -3.7755 10.3313 3.0440 0.0000 -0.0000 0.0000 44.1051 25.9193 68.7870 -58.9785 56.0315 -33.4925 0.0000 0.0000 1.1916 -5.2703 -32.3867 2.8286 7.1250 -0.0000 -0.0000 30.6962 -59.7562 -11.7212
10.2735 20.8062 13.9763 -2.2232 30.6609 -12.4053 0.0000 0.0000 0.0000 -12.2217 -11.9915 -19.5533 2.4013 9.6563 27.8706 0.5484 -4.3448 16.2511 4.5267 -12.8301 -38.7357 0.0000 0.0000 0.0000 21.7622 -0.4909 -30.5937 -4.0608 -12.2409 36.5897 -0.6895 -7.1099 14.8829 -0.8623 -5.9215 16.5567 -0.7287 1.4164 17.5762 0.8866 1.8573 3.6562 0.9393 0.9517 -5.9717 -0.8093 1.7789 -12.4080 -2.1509 3.3720 23.4440 -0.1999 1.3195 9.4641 0.0000 0.0000 0.0000 -75.7235 29.6480 48.0317 86.0515 -59.9410 -56.5812 -0.0000 0.0000 -10.8195 23.4369 -18.9494 -8.0130 -7.1250 0.0000 -0.0000 -3.0918 9.4872 2.5437 0.0000 0.0000 0.0000 41.7095 21.6035 69.3411 -67.8644 58.0651 -40.9546 0.0000 0.0000 1.5837 -6.1849 -31.9271 3.2800 7.1250 -0.0000 -0.0000 29.3582 -59.5735 -11.0238
10.6887 20.1827 14.6401 -2.0212 31.1741 -12.5343 0.0000 0.0000 0.0000 -12.6828 -11.7387 -20.3493 2.2852 9.4365 27.1705 0.4146 -6.7334 16.4683 5.5088 -13.9349 -42.9771 0.0000 0.0000 0.0000 21.1979 0.1362 -29.9208 -3.5263 -11.5018 33.9915 -0.8729 -9.0234 16.8897 -1.1351 -6.7664 19.0251 -1.4051 1.3227 16.9321 1.0506 1.6323 3.9295 1.5623 0.8498 -5.3508 -1.9427 1.8207 -12.7819 -1.0588 3.4602 24.1965 0.3880 1.3685 9.7596 0.0000 -0.0000 0.0000 -76.9356 35.2402 47.4286 94.3159 -59.9295 -63.7368 -0.0000 0.0000 -10.5042 23.9277 -19.0721 -8.2497 -7.1250 0.0000 -0.0000 -2.7845 9.2807 2.3018 0.0000 -0.0000 0.0000 39.1633 17.2309 69.6872 -76.9378 59.3454 -48.7126 0.0000 0.0000 1.8330 -7.9718 -31.1279 4.1406 7.1250 -0.0000 -0.0000 26.8561 -59.2841 -9.8067
11.0772 19.5071 15.3304 -2.6854 31.7608 -13.5473 0.0000 0.0000 0.0000 -12.6116 -10.2178 -21.2788 2.3473 9.5548 27.5467 0.5180 -5.3657 16.6163 5.0715 -13.4638 -41.1305 0.0000 0.0000 0.0000 21.3070 1.2231 -28.5189 -3.2301 -11.0586 32.4778 -0.9448 -11.0582 17.8783 -1.2832 -7.1783 20.2448 -1.5669 1.3351 16.4256 1.2410 1.6424 4.1608 1.8645 0.8537 -4.8428 -1.6393 1.7280 -12.0386 -1.2912 3.3018 24.0561 0.2276 1.3078 9.5784 0.0000 0.0000 0.0000 -77.1337 41.0722 46.8411 102.3806 -59.4128 -70.7008 -0.0000 0.0000 -9.0099 23.5922 -19.4284 -8.2654 -7.1250 0.0000 -0.0000 -3.0337 8.9529 2.5283 0.0000 0.0000 0.0000 37.4705 12.0333 69.7554 -85.1602 59.9113 -55.8099 0.0000 0.0000 2.0263 -8.8296 -31.0824 4.5851 7.1250 -0.0000 -0.0000 25.9470 -59.4387 -9.5429
